<?xml version="1.0" encoding="utf-8"?>
<!-- Generator: Adobe Illustrator 19.0.0, SVG Export Plug-In . SVG Version: 6.00 Build 0)  -->
<svg version="1.1" id="moun" xmlns="http://www.w3.org/2000/svg" xmlns:xlink="http://www.w3.org/1999/xlink" x="0px" y="0px"
	 viewBox="229 292.9 1054 257" style="enable-background:new 229 292.9 1054 257;" xml:space="preserve">
<style type="text/css">
	.st0{opacity:0.56;}
	.st1{opacity:0.56;fill:#454545;}
</style>
<title>Group</title>
<desc>Created with Sketch.</desc>
<g id="layer-website" class="st0">
	<g id="Desktop-HD-Copy-5" transform="translate(-231.000000, -703.000000)">
		<g id="Group" transform="translate(159.000000, 703.000000)">
			<path id="Path-2" class="st1" d="M259.7,582.7c46.1-26.1,104.5-102.8,126.1-130.5c35.9-45.9,83.5-59.2,106.9-64
				c37.6-7.7,70.6-6.4,101.6-33.4s60.2-64.2,93.3-61.8c33.1,2.4,81.4,36.4,122.7,37.7s79.5-21.6,130.1-15.7
				c50.6,6,99.6,70.1,176.4,72.1c55.1,1.4,256.3,151.2,238.8,172.4c-39,47.2-78.8,8.5-144.6,45.7
				C1048.6,696.9,41.9,705.9,259.7,582.7z"/>
			<path id="Path-2-Copy" class="st1" d="M377.2,619c5.2-56.6,18-80.1,39.7-107.8c35.9-45.9,83.5-59.2,106.9-64
				c37.6-7.7,70.6-6.4,101.6-33.4s60.2-64.2,93.3-61.8c33.1,2.4,81.4,36.4,122.7,37.7c41.3,1.3,79.5-21.6,130.1-15.7
				c50.6,6,95.7,64.7,171.5,69.3c48.7,3,175,70.8,193.1,132.2c10.1,34.3-35.8,55.8-94,88.7C1079.6,755.9,363.4,769.4,377.2,619z"/>
			<path id="Path-2-Copy-4" class="st1" d="M438.2,685c5.2-56.6,18-80.1,39.7-107.8c35.9-45.9,83.5-59.2,106.9-64
				c37.6-7.7,70.6-6.4,101.6-33.4s60.2-64.2,93.3-61.8c33.1,2.4,81.4,36.4,122.7,37.7s79.5-21.6,130.1-15.7
				c50.6,6,95.7,64.7,171.5,69.3c75.9,4.6,261.6,129.1,99.1,220.9S424.4,835.4,438.2,685z"/>
			<path id="Path-2-Copy-5" class="st1" d="M500.2,741c5.2-56.6,18-80.1,39.7-107.8c35.9-45.9,83.5-59.2,106.9-64
				c37.6-7.7,70.6-6.4,101.6-33.4c31-27,60.2-64.2,93.3-61.8c33.1,2.4,81.4,36.4,122.7,37.7c41.3,1.3,79.5-21.6,130.1-15.7
				c50.6,6,95.7,64.7,171.5,69.3c75.9,4.6,261.6,129.1,99.1,220.9S486.4,891.4,500.2,741z"/>
		</g>
	</g>
</g>
</svg>
